<svg id="Layer_1" data-name="Layer 1" xmlns="http://www.w3.org/2000/svg" viewBox="0 0 189.99 74.69"><path d="M.5.5H12.74L24.08,33.86,35.42.5H47.66V5.3h-4.2V40.7h4.2v4.8H33.74V40.7h4.2V8.48L26.72,40.7H21.44L10.22,8.48V40.7h4.2v4.8H.5V40.7H4.7V5.3H.5Z" style="fill:#ef3c23;stroke:#231f20;stroke-miterlimit:10"/><path d="M99.33,63.6c1.61-1.43,3-2.67,4.16-3.74l2.73-2.5c.67-.61,1.25-1.13,1.75-1.55a2.63,2.63,0,0,1,1-.63c.27,0,.53.27.77.84a3.57,3.57,0,0,1,.37,1.36c0,.22-.37.74-1.11,1.57s-1.3,1.49-1.67,2a2.55,2.55,0,0,0-.56,1.55,1,1,0,0,0,.32.76,1.09,1.09,0,0,0,.76.29A2.22,2.22,0,0,0,109,63c.47-.35,1.22-1,2.24-1.88v1.25c-1,1-2,1.79-2.78,2.49a14.6,14.6,0,0,1-2.17,1.56,3.31,3.31,0,0,1-1.54.52,1.18,1.18,0,0,1-.91-.41,1.48,1.48,0,0,1-.37-1,3.71,3.71,0,0,1,.21-1.21,11.12,11.12,0,0,1,.65-1.46c.29-.57.68-1.24,1.16-2l1.32-2.17c-1.2,1-2.26,1.91-3.18,2.81S102,63.13,101.4,63.8L100,65.39a2.65,2.65,0,0,1-1.83,1.09c-.61,0-.91-.43-.91-1.3A5.43,5.43,0,0,1,98,63.29c.46-.91,1.11-2.06,2-3.47a.73.73,0,0,0,.1-.44.31.31,0,0,0-.35-.35c-.26,0-.63.24-1.12.73s-1.42,1.5-2.82,3.05a17.79,17.79,0,0,0-1.31,1.7,16,16,0,0,1-1,1.39.87.87,0,0,1-.64.35c-.42,0-.81-.37-1.17-1.12A5.84,5.84,0,0,1,91,62.51a4.5,4.5,0,0,1,.36-1.88,15.91,15.91,0,0,1,1.12-2,16.44,16.44,0,0,1,1.92-2.43A2.23,2.23,0,0,1,96,55.5a1.66,1.66,0,0,1,.86.2.62.62,0,0,1,.35.55,2.69,2.69,0,0,1-.64,1.22,13.47,13.47,0,0,1-1.63,1.74,6.93,6.93,0,0,0-1,1.25,2.49,2.49,0,0,0-.48,1.08c0,.32.13.48.37.48s.71-.41,1.51-1.23S97,59.07,98,58.11a27.25,27.25,0,0,1,2.69-2.41,3.69,3.69,0,0,1,2.1-1,1.09,1.09,0,0,1,.87.4,1.42,1.42,0,0,1,.34,1,3.69,3.69,0,0,1-.53,1.4,26.72,26.72,0,0,1-1.53,2.5C101.26,61,100.39,62.19,99.33,63.6Z" style="fill:#fff"/><path d="M122.46,61.16v1.17a9.06,9.06,0,0,1-1.87,1.41,4,4,0,0,1-2,.28q-2.28,2.72-4,2.71a2.83,2.83,0,0,1-1.8-.65,4.66,4.66,0,0,1-1.29-1.78,6.31,6.31,0,0,1-.48-2.51,5.32,5.32,0,0,1,.75-2.5,11,11,0,0,1,1.93-2.55,10.83,10.83,0,0,1,2.54-1.92,5.3,5.3,0,0,1,2.51-.73,2.75,2.75,0,0,1,1.3.26.78.78,0,0,1,.48.71,1.35,1.35,0,0,1-.41.81,1.48,1.48,0,0,1,.92.46,2.1,2.1,0,0,1,.25,1.19,7.75,7.75,0,0,1-.4,2.13,10.38,10.38,0,0,1-1.08,2.4l.31.32h.27a1.29,1.29,0,0,0,.59-.15,3.8,3.8,0,0,0,.52-.32Zm-3.62-4.63c-1,.59-1.81,1.12-2.5,1.59a12.27,12.27,0,0,0-1.76,1.45,3.76,3.76,0,0,0-1,1.46c-.3,1.32-.44,2-.44,2.13,0,.77.54,1.16,1.61,1.16a5.54,5.54,0,0,0,2.54-1.3,4.63,4.63,0,0,1-.3-1.58,6.19,6.19,0,0,1,.45-2.26A19.22,19.22,0,0,1,118.84,56.53Z" style="fill:#fff"/><path d="M134.27,58q-3.09,3.45-3.09,4.8c0,.5.2.75.61.75a2.63,2.63,0,0,0,1.33-.53c.54-.36,1.4-1,2.56-1.91v1.21c-1.67,1.65-2.94,2.83-3.84,3.56A3.92,3.92,0,0,1,129.67,67c-1,0-1.45-.64-1.45-1.9A3.49,3.49,0,0,1,128.4,64a8.12,8.12,0,0,1,.48-1.13c.21-.4.52-1,.94-1.69l1.46-2.49a11,11,0,0,0-2.51,2,20.25,20.25,0,0,0-1.67,1.8c-.46.57-.95,1.21-1.47,1.9a14.6,14.6,0,0,1-1.14,1.41,1.06,1.06,0,0,1-.73.36c-.38,0-.72-.39-1-1.18a7.41,7.41,0,0,1-.47-2.74,4,4,0,0,1,.22-1.51,8.93,8.93,0,0,1,.87-1.55,17.08,17.08,0,0,1,2.09-2.73,2.48,2.48,0,0,1,1.69-.87,1.82,1.82,0,0,1,.9.19.64.64,0,0,1,.34.6.76.76,0,0,1-.1.37,2.16,2.16,0,0,1-.24.35c-.09.1-.27.31-.55.61q-2.77,3.08-2.78,4,0,.51.33.51c.15,0,.42-.22.82-.67s.93-1.05,1.57-1.78a26.78,26.78,0,0,1,2.26-2.29,24.12,24.12,0,0,1,3-2.3,2.92,2.92,0,0,1,1.55-.66c.19,0,.37.26.55.78a4.47,4.47,0,0,1,.28,1.56C135,57.09,134.77,57.48,134.27,58Z" style="fill:#fff"/><path d="M143.6,61.23c-1,1.17-1.95,2.17-2.76,3a24.05,24.05,0,0,1-2,1.83,2.35,2.35,0,0,1-1,.61c-.3,0-.64-.25-1-.74a6.5,6.5,0,0,1-1-1.88,6.91,6.91,0,0,1-.4-2.32,5.08,5.08,0,0,1,1.65-3.44,15.07,15.07,0,0,1,3.76-2.87A7.69,7.69,0,0,1,144,54.27a2.22,2.22,0,0,1,1.69,1.09q1.35-2.84,2.58-5a26.66,26.66,0,0,1,2-3.27c.55-.72.95-1.07,1.18-1.07a.92.92,0,0,1,.71.37,1.29,1.29,0,0,1,.33.86,7.7,7.7,0,0,1-1.34,3.13c-.89,1.49-1.77,2.93-2.63,4.34a37.77,37.77,0,0,0-2.24,4.16,9.18,9.18,0,0,0-.93,3.78q0,1.59,1,1.59a2.88,2.88,0,0,0,1.55-.7,32.71,32.71,0,0,0,2.65-2.33v1.29c-2.53,3.26-4.48,4.9-5.85,4.9a1.27,1.27,0,0,1-1.19-.63,3.92,3.92,0,0,1-.36-1.88A17.32,17.32,0,0,1,143.6,61.23Zm1.31-4.29a22.57,22.57,0,0,0-3.68,1.69,16,16,0,0,0-2.55,1.61,3.07,3.07,0,0,0-.68,1.32,5.48,5.48,0,0,0-.3,1.46.73.73,0,0,0,.17.49.59.59,0,0,0,.44.2,1,1,0,0,0,.57-.22,11.78,11.78,0,0,0,1-.82c.46-.41.76-.68.9-.79s.64-.56,1.33-1.14,1.19-1,1.5-1.36a4.89,4.89,0,0,0,.81-1.1A4.74,4.74,0,0,0,144.91,56.94Z" style="fill:#fff"/><path d="M152.64,58.05a21.37,21.37,0,0,1,5.19-3.61,10.22,10.22,0,0,1,3.88-1.18,1,1,0,0,1,.69.31,2.53,2.53,0,0,1,.5.71,1.69,1.69,0,0,1,.18.6.51.51,0,0,1-.25.47,4.68,4.68,0,0,1-.86.36c.09.19.19.43.32.72s.23.53.3.71a1.33,1.33,0,0,1,.1.48,3.69,3.69,0,0,1-.85,1.58c-.57.76-1,1.33-1.19,1.69a2.47,2.47,0,0,0-.35,1.34c0,.87.4,1.3,1.2,1.3s2.1-.77,3.85-2.3V62.3q-4.46,4.94-6.36,4.94a1.07,1.07,0,0,1-1-.45,2.5,2.5,0,0,1-.29-1.33,12.47,12.47,0,0,1,1-4q-2.57,2.85-3.81,4a3.44,3.44,0,0,1-2.06,1.2c-.26,0-.58-.22-1-.66a6.49,6.49,0,0,1-1-1.74,5.55,5.55,0,0,1-.45-2.2,4.93,4.93,0,0,1,.16-1.38,3.36,3.36,0,0,1,.61-1.14A16.74,16.74,0,0,1,152.64,58.05Zm8.42-1.94a38.26,38.26,0,0,0-6.51,3.55c-1.3,1-2,2-2,3a1.93,1.93,0,0,0,.2.92.58.58,0,0,0,.53.36,2,2,0,0,0,.68-.24,14.07,14.07,0,0,0,3.38-2.84C158.41,59.7,159.63,58.12,161.06,56.11Z" style="fill:#fff"/><path d="M173.29,61.88l-3.12,2.65c-1.49,1.3-2.49,2-3,2s-.94-.52-1.44-1.57a6.48,6.48,0,0,1-.76-2.75,4.13,4.13,0,0,1,.31-1.7,12.27,12.27,0,0,1,1.06-1.8,23.71,23.71,0,0,1,2.06-2.53,14,14,0,0,1,1.74-1.61,2.34,2.34,0,0,1,1-.57,1.23,1.23,0,0,1,.92.49,1.51,1.51,0,0,1,.45,1,2.42,2.42,0,0,1-.48,1.07,14.74,14.74,0,0,1-1.53,1.88,35.07,35.07,0,0,1-2.91,2.71l-.33,1a1.05,1.05,0,0,0-.14.49.42.42,0,0,0,.47.48A6.64,6.64,0,0,0,170,61.81a28.6,28.6,0,0,0,3.95-3.36c.55-.55,1-1,1.37-1.46s.69-.82,1-1.19.54-.64.73-.83a.92.92,0,0,1,.52-.3.67.67,0,0,1,.69.37,2.59,2.59,0,0,1,.24,1.25,2.48,2.48,0,0,1-.42,1.18c-.28.48-.81,1.29-1.58,2.43s-1.54,2.33-2.31,3.55-1.55,2.61-2.35,4.14l1.08-1,2.17-2.1c.77-.72,1.39-1.31,1.89-1.75s1.1-.95,1.84-1.53v1.17c-1.58,1.7-3,3.32-4.3,4.84s-2.27,2.74-3,3.65l-1.22,1.6c-.32.41-.6.8-.85,1.16a10.31,10.31,0,0,1-.63.82c-.17.2-.31.29-.42.29s-.46-.24-.66-.73a3.57,3.57,0,0,1-.29-1.29,2,2,0,0,1,.2-.9A96.84,96.84,0,0,1,173.29,61.88Z" style="fill:#fff"/><path d="M178.62,61.68v-.42q4.53-4.78,6.24-6.7.39-2.16,1.86-2.16a1.76,1.76,0,0,1,.79.21l.11.34a1.89,1.89,0,0,0-.07.6,5.46,5.46,0,0,0,.25,1.23c.17.61.31,1.12.4,1.53a6.44,6.44,0,0,1,.14,1.38,4.85,4.85,0,0,1-.53,2.23,7.46,7.46,0,0,1-1.53,2,16.45,16.45,0,0,1-2.58,2,6.64,6.64,0,0,0,1,.11,4,4,0,0,0,1.56-.36,10.3,10.3,0,0,0,1.7-1c.58-.4,1.26-.93,2-1.57v1.17a26.45,26.45,0,0,1-4,3.34,6.06,6.06,0,0,1-3.06,1.13,4.27,4.27,0,0,1-3.06-1.41,3.84,3.84,0,0,1-1-1.61A9,9,0,0,1,178.62,61.68ZM185.18,59l-.32-2.56c-.73.82-2.28,2.39-4.66,4.73a2.86,2.86,0,0,1,1.44.61,9.79,9.79,0,0,1,1.09,1.5,4.28,4.28,0,0,0,1.84-1.35,3.77,3.77,0,0,0,.64-2.33,3,3,0,0,0,0-.31A2.83,2.83,0,0,0,185.18,59Z" style="fill:#fff"/><path d="M58.7,46l-6.24-6.6V7.59L58.7,1H75.62l6.24,6.6v31.8L75.62,46ZM61,40.83H73.22l3.12-3.18V9.33L73.28,6.15H61.1L58,9.33V37.65Z" style="fill:#5ec0ee;stroke:#231f20;stroke-miterlimit:10"/><path d="M111.05,27.69h-8.28v-4.8h13.08v16.5L109.61,46H93.89l-6.24-6.6V7.59L93.89,1h15.72l6.24,6.6v7.56h-4.8v-5.1l-3.78-3.9h-11L93.17,9.33V37.65l3.06,3.18h11l3.84-3.9Z" style="fill:#faa22d;stroke:#231f20;stroke-miterlimit:10"/><path d="M142.73,1h13.32v4.8h-3.6v33.6L146.21,46H129.89l-6.24-6.6V5.79h-3.6V1h13.32v4.8h-4.2V37.65l3.06,3.18h11.58l3.12-3.18V5.79h-4.2Z" style="fill:#186e3a;stroke:#231f20;stroke-miterlimit:10"/><path d="M160.84,1h14.52v4.8h-4.8v35.4h13.09v-7h4.56V46H160.84v-4.8H165V5.79h-4.2Z" style="fill:#fee000;stroke:#231f20;stroke-miterlimit:10"/></svg>